<mxfile host="" modified="2020-06-02T10:36:40.597Z" agent="5.0 (Windows NT 10.0; Win64; x64) AppleWebKit/537.36 (KHTML, like Gecko) Code/1.45.1 Chrome/78.0.3904.130 Electron/7.2.4 Safari/537.36" etag="01oPF3x3gsbpcS4v5qev" version="13.1.3">
    <diagram name="Page-1" id="58cdce13-f638-feb5-8d6f-7d28b1aa9fa0">
        <mxGraphModel dx="1723" dy="1162" grid="1" gridSize="10" guides="1" tooltips="1" connect="1" arrows="1" fold="1" page="1" pageScale="1" pageWidth="1100" pageHeight="850" background="#ffffff" math="0" shadow="0">
            <root>
                <mxCell id="0"/>
                <mxCell id="1" parent="0"/>
                <mxCell id="382b91b5511bd0f7-1" value="" style="ellipse;html=1;shape=startState;fillColor=#000000;strokeColor=#ff0000;rounded=1;shadow=0;comic=0;labelBackgroundColor=none;fontFamily=Verdana;fontSize=16;fontColor=#000000;align=center;direction=south;fontStyle=0" parent="1" vertex="1">
                    <mxGeometry x="140" y="135" width="30" height="30" as="geometry"/>
                </mxCell>
                <mxCell id="bGxqY_sTTuizX-bAdiwh-5" value="where(&quot;property&quot;)" style="rounded=0;orthogonalLoop=1;jettySize=auto;html=1;entryX=0;entryY=0.5;entryDx=0;entryDy=0;exitX=1;exitY=0.5;exitDx=0;exitDy=0;fontSize=16;fontStyle=0;labelBackgroundColor=none;spacingRight=11;spacingBottom=3;" parent="1" source="382b91b5511bd0f7-6" target="bGxqY_sTTuizX-bAdiwh-3" edge="1">
                    <mxGeometry x="0.2857" y="10" relative="1" as="geometry">
                        <mxPoint x="320" y="129.9999999999999" as="targetPoint"/>
                        <mxPoint as="offset"/>
                    </mxGeometry>
                </mxCell>
                <mxCell id="bGxqY_sTTuizX-bAdiwh-10" value="save(), update(), delete(), filter()" style="edgeStyle=orthogonalEdgeStyle;rounded=0;orthogonalLoop=1;jettySize=auto;html=1;exitX=1;exitY=0.5;exitDx=0;exitDy=0;entryX=0.5;entryY=0;entryDx=0;entryDy=0;curved=1;fontSize=16;fontStyle=0;labelBackgroundColor=none;" parent="1" source="382b91b5511bd0f7-6" target="382b91b5511bd0f7-6" edge="1">
                    <mxGeometry x="0.2727" y="-10" relative="1" as="geometry">
                        <mxPoint x="470" y="60" as="targetPoint"/>
                        <Array as="points">
                            <mxPoint x="360" y="150"/>
                            <mxPoint x="360" y="60"/>
                            <mxPoint x="260" y="60"/>
                        </Array>
                        <mxPoint as="offset"/>
                    </mxGeometry>
                </mxCell>
                <mxCell id="bGxqY_sTTuizX-bAdiwh-12" style="edgeStyle=orthogonalEdgeStyle;curved=1;rounded=0;orthogonalLoop=1;jettySize=auto;html=1;entryX=0;entryY=0.5;entryDx=0;entryDy=0;exitX=0.5;exitY=1;exitDx=0;exitDy=0;fontSize=16;fontStyle=0" parent="1" source="382b91b5511bd0f7-6" target="bGxqY_sTTuizX-bAdiwh-11" edge="1">
                    <mxGeometry relative="1" as="geometry">
                        <Array as="points">
                            <mxPoint x="260" y="220"/>
                        </Array>
                    </mxGeometry>
                </mxCell>
                <mxCell id="bGxqY_sTTuizX-bAdiwh-13" value="&lt;div style=&quot;font-size: 16px;&quot;&gt;all(), first(), skip(number), take(number),&amp;nbsp;&lt;/div&gt;&lt;div style=&quot;font-size: 16px;&quot;&gt;paginate(page, perPage), iterate()&lt;/div&gt;" style="edgeLabel;html=1;align=center;verticalAlign=middle;resizable=0;points=[];fontSize=16;fontStyle=0;labelBackgroundColor=none;" parent="bGxqY_sTTuizX-bAdiwh-12" vertex="1" connectable="0">
                    <mxGeometry x="-0.0456" y="7" relative="1" as="geometry">
                        <mxPoint x="-15.000000000000002" y="27" as="offset"/>
                    </mxGeometry>
                </mxCell>
                <mxCell id="382b91b5511bd0f7-6" value="Queriable" style="rounded=1;whiteSpace=wrap;html=1;arcSize=24;fillColor=#ffffc0;strokeColor=#ff0000;shadow=0;comic=0;labelBackgroundColor=none;fontFamily=Verdana;fontSize=16;fontColor=#000000;align=center;fontStyle=0" parent="1" vertex="1">
                    <mxGeometry x="200" y="120" width="120" height="60" as="geometry"/>
                </mxCell>
                <mxCell id="2a3bc250acf0617d-9" style="edgeStyle=orthogonalEdgeStyle;html=1;labelBackgroundColor=none;endArrow=open;endSize=8;strokeColor=#ff0000;fontFamily=Verdana;fontSize=16;align=left;fontStyle=0" parent="1" source="382b91b5511bd0f7-1" target="382b91b5511bd0f7-6" edge="1">
                    <mxGeometry relative="1" as="geometry"/>
                </mxCell>
                <mxCell id="bGxqY_sTTuizX-bAdiwh-15" style="edgeStyle=orthogonalEdgeStyle;curved=1;rounded=0;orthogonalLoop=1;jettySize=auto;html=1;entryX=0;entryY=0.5;entryDx=0;entryDy=0;fontSize=16;fontStyle=0" parent="1" source="bGxqY_sTTuizX-bAdiwh-3" target="bGxqY_sTTuizX-bAdiwh-14" edge="1">
                    <mxGeometry relative="1" as="geometry"/>
                </mxCell>
                <mxCell id="bGxqY_sTTuizX-bAdiwh-16" value="&lt;div style=&quot;font-size: 16px;&quot;&gt;greatherThan(value), lessThan(value),&amp;nbsp;&lt;/div&gt;&lt;div style=&quot;font-size: 16px;&quot;&gt;equal(value), between(min, max)&lt;/div&gt;" style="edgeLabel;html=1;align=center;verticalAlign=middle;resizable=0;points=[];fontSize=16;fontStyle=0;labelBackgroundColor=none;" parent="bGxqY_sTTuizX-bAdiwh-15" vertex="1" connectable="0">
                    <mxGeometry x="-0.2367" relative="1" as="geometry">
                        <mxPoint x="20" y="-40" as="offset"/>
                    </mxGeometry>
                </mxCell>
                <mxCell id="bGxqY_sTTuizX-bAdiwh-3" value="Condition Start" style="rounded=1;whiteSpace=wrap;html=1;arcSize=40;fontColor=#000000;fillColor=#ffffc0;strokeColor=#ff0000;fontSize=16;fontStyle=0" parent="1" vertex="1">
                    <mxGeometry x="480" y="130" width="120" height="40" as="geometry"/>
                </mxCell>
                <mxCell id="bGxqY_sTTuizX-bAdiwh-11" value="Resolved" style="rounded=1;whiteSpace=wrap;html=1;arcSize=40;fontColor=#000000;fillColor=#ffffc0;strokeColor=#ff0000;fontSize=16;fontStyle=0" parent="1" vertex="1">
                    <mxGeometry x="460" y="200" width="120" height="40" as="geometry"/>
                </mxCell>
                <mxCell id="bGxqY_sTTuizX-bAdiwh-17" value="or(property), and(property)" style="edgeStyle=orthogonalEdgeStyle;curved=1;rounded=0;orthogonalLoop=1;jettySize=auto;html=1;entryX=0.5;entryY=0;entryDx=0;entryDy=0;fontSize=16;fontStyle=0;labelBackgroundColor=none;" parent="1" source="bGxqY_sTTuizX-bAdiwh-14" target="bGxqY_sTTuizX-bAdiwh-3" edge="1">
                    <mxGeometry x="0.0204" y="-10" relative="1" as="geometry">
                        <Array as="points">
                            <mxPoint x="870" y="60"/>
                            <mxPoint x="540" y="60"/>
                        </Array>
                        <mxPoint as="offset"/>
                    </mxGeometry>
                </mxCell>
                <mxCell id="bGxqY_sTTuizX-bAdiwh-18" style="edgeStyle=orthogonalEdgeStyle;curved=1;rounded=0;orthogonalLoop=1;jettySize=auto;html=1;entryX=1;entryY=0.5;entryDx=0;entryDy=0;fontSize=16;fontStyle=0" parent="1" source="bGxqY_sTTuizX-bAdiwh-14" target="bGxqY_sTTuizX-bAdiwh-11" edge="1">
                    <mxGeometry relative="1" as="geometry">
                        <Array as="points">
                            <mxPoint x="870" y="220"/>
                        </Array>
                    </mxGeometry>
                </mxCell>
                <mxCell id="bGxqY_sTTuizX-bAdiwh-19" value="&lt;div style=&quot;font-size: 16px;&quot;&gt;all(), first(), skip(number), take(number),&amp;nbsp;&lt;/div&gt;&lt;div style=&quot;font-size: 16px;&quot;&gt;paginate(page, perPage), iterate()&lt;/div&gt;" style="edgeLabel;html=1;align=center;verticalAlign=middle;resizable=0;points=[];fontSize=16;fontStyle=0;labelBackgroundColor=none;" parent="bGxqY_sTTuizX-bAdiwh-18" vertex="1" connectable="0">
                    <mxGeometry x="0.08" y="-3" relative="1" as="geometry">
                        <mxPoint x="14" y="23" as="offset"/>
                    </mxGeometry>
                </mxCell>
                <mxCell id="bGxqY_sTTuizX-bAdiwh-14" value="Condition End" style="rounded=1;whiteSpace=wrap;html=1;arcSize=40;fontColor=#000000;fillColor=#ffffc0;strokeColor=#ff0000;fontSize=16;fontStyle=0" parent="1" vertex="1">
                    <mxGeometry x="810" y="130" width="120" height="40" as="geometry"/>
                </mxCell>
                <mxCell id="bGxqY_sTTuizX-bAdiwh-23" value="&lt;span style=&quot;font-size: 16px;&quot;&gt;filter(function),&lt;br style=&quot;font-size: 16px;&quot;&gt;&lt;/span&gt;&lt;span style=&quot;background-color: rgb(248, 249, 250); font-size: 16px;&quot;&gt;or(childQuery), &lt;br style=&quot;font-size: 16px;&quot;&gt;and(&lt;/span&gt;&lt;span style=&quot;background-color: rgb(248, 249, 250); font-size: 16px;&quot;&gt;childQuery&lt;/span&gt;&lt;span style=&quot;background-color: rgb(248, 249, 250); font-size: 16px;&quot;&gt;)&lt;/span&gt;&lt;span style=&quot;font-size: 16px;&quot;&gt;&lt;br style=&quot;font-size: 16px;&quot;&gt;&lt;/span&gt;" style="edgeStyle=orthogonalEdgeStyle;curved=1;rounded=0;orthogonalLoop=1;jettySize=auto;html=1;exitX=0.75;exitY=1;exitDx=0;exitDy=0;entryX=0.75;entryY=0;entryDx=0;entryDy=0;labelBackgroundColor=#ffffff;fontSize=16;fontStyle=0" parent="1" source="bGxqY_sTTuizX-bAdiwh-14" target="bGxqY_sTTuizX-bAdiwh-14" edge="1">
                    <mxGeometry y="-30" relative="1" as="geometry">
                        <Array as="points">
                            <mxPoint x="900" y="190"/>
                            <mxPoint x="970" y="190"/>
                            <mxPoint x="970" y="110"/>
                            <mxPoint x="900" y="110"/>
                        </Array>
                        <mxPoint as="offset"/>
                    </mxGeometry>
                </mxCell>
            </root>
        </mxGraphModel>
    </diagram>
</mxfile>